<?xml version="1.0" encoding="UTF-8"?>
<svg xmlns="http://www.w3.org/2000/svg" id="Layer_1" data-name="Layer 1" viewBox="0 0 512 512" width="512" height="512"><path d="M97.827,226.117h75.1a6,6,0,0,0,0-12h-75.1a6,6,0,1,0,0,12Z"/><path d="M217.279,253.49H97.827a6,6,0,0,0,0,12H217.279a6,6,0,0,0,0-12Z"/><path d="M217.279,292.863H97.827a6,6,0,0,0,0,12H217.279a6,6,0,1,0,0-12Z"/><path d="M217.279,332.235H97.827a6,6,0,0,0,0,12H217.279a6,6,0,0,0,0-12Z"/><path d="M217.279,371.608H97.827a6,6,0,0,0,0,12H217.279a6,6,0,0,0,0-12Z"/><path d="M294.954,304.863H414.407a6,6,0,0,0,0-12H294.954a6,6,0,0,0,0,12Z"/><path d="M294.954,344.235H414.407a6,6,0,1,0,0-12H294.954a6,6,0,0,0,0,12Z"/><path d="M294.954,383.608H414.407a6,6,0,0,0,0-12H294.954a6,6,0,0,0,0,12Z"/><path d="M326.029,248.3h19.6l5.169,16.206a6,6,0,0,0,11.433-3.646L358.22,248.3h23.362a10.728,10.728,0,0,0,8.528-17.244L377.1,212.821a25.4,25.4,0,0,0,9.553-30.507l-4.337-10.937a6,6,0,1,0-11.155,4.422l4.337,10.938a13.388,13.388,0,0,1-5.385,16.3L356.089,183.4c-.058-.08-.117-.159-.178-.236a10.738,10.738,0,0,0-18.4,2.692l-21.4,47.61c-.054.121-.1.244-.151.368A10.73,10.73,0,0,0,326.029,248.3Zm40.477-29.654,12.6,17.654H354.445a13.4,13.4,0,0,1,6.719-14.78Zm-18.76-26.28L359.478,208.8l-4,2.152A25.41,25.41,0,0,0,342.292,236.3H328Z"/><path d="M479.212,180.947v-7.769a19.855,19.855,0,0,0-19.832-19.832h-5.241a37.093,37.093,0,0,0-32.9-20.018H297.942a47.52,47.52,0,0,0-41.507,24.428,47.628,47.628,0,0,0-41.569-24.428H184.4a70.118,70.118,0,0,1,12.028-13.508,6.958,6.958,0,0,0,.982-9,6.87,6.87,0,0,0-8.278-2.538c-12.686,5.1-36.906,10.393-56.589-11.459a6.359,6.359,0,0,0-10.625,6.643c4.589,11.362,4.546,21.376,2.2,29.864H90.764a37.09,37.09,0,0,0-32.9,20.018h-5.6a19.855,19.855,0,0,0-19.833,19.832v18.434A25.662,25.662,0,0,0,10,217.023V452.57a25.661,25.661,0,0,0,25.646,25.619H177.292v2.476a7.7,7.7,0,0,0,13.014,5.58l11.147-10.608L212.6,486.243a7.7,7.7,0,0,0,13.014-5.578v-2.476H476.354A25.661,25.661,0,0,0,502,452.57V206.4A25.663,25.663,0,0,0,479.212,180.947ZM137.455,116.522c13.531,8.334,27.547,9.14,38.787,7.552-6.529,8.993-12.2,21.693-10.015,38.46a51.544,51.544,0,0,0-28.834-8.731,59.507,59.507,0,0,0-10.327.93C133.479,145.309,138.973,132.333,137.455,116.522Zm39.837,349.667H35.646A13.647,13.647,0,0,1,22,452.57V217.023A13.638,13.638,0,0,1,32.427,203.8V411.01a34.685,34.685,0,0,0,34.645,34.645h110.22Zm0-32.534H67.072A22.671,22.671,0,0,1,44.427,411.01V173.178a7.841,7.841,0,0,1,7.833-7.832h1.794a37.124,37.124,0,0,0-.347,5V400.322a22.992,22.992,0,0,0,22.977,22.955H177.292Zm36.321,36.989-6.85-6.518a7.7,7.7,0,0,0-10.62,0l-6.851,6.518V423.277l24.321.029Zm36.844-4.455H225.613V445.655h19.741l4.992,5.612c.037.041.073.082.111.122Zm-24.844-32.534v-7.224a28.781,28.781,0,0,1,8.431,6.509l.637.715Zm24.844-.319-7.447-8.372a40.857,40.857,0,0,0-30.5-13.687H76.684a10.979,10.979,0,0,1-10.977-10.955V170.344a25.064,25.064,0,0,1,25.057-25.016h28.152A62.9,62.9,0,0,1,107.157,159.4a6.868,6.868,0,0,0-1.358,8.56,6.964,6.964,0,0,0,8.515,3.068c11.478-4.46,35.362-13.74,57.925,12.986a6.358,6.358,0,0,0,10.679-6.676c-5.736-12.965-6.081-23.5-3.866-32h35.814a35.6,35.6,0,0,1,35.591,35.536Zm207.836-33.014V170.344a37.124,37.124,0,0,0-.347-5h1.434a7.84,7.84,0,0,1,7.832,7.832V411.01a22.67,22.67,0,0,1-22.645,22.645H277.63l.354-.409a28.8,28.8,0,0,1,21.808-9.969H435.316A22.992,22.992,0,0,0,458.293,400.322ZM262.457,180.864v-.106a35.5,35.5,0,0,1,35.485-35.43H421.236a25.064,25.064,0,0,1,25.057,25.016V400.322a10.979,10.979,0,0,1-10.977,10.955H299.792A40.8,40.8,0,0,0,268.906,425.4l-6.449,7.46ZM490,452.57a13.648,13.648,0,0,1-13.646,13.619h-213.9V451.208l.024-.028,4.776-5.525h177.31a34.685,34.685,0,0,0,34.645-34.645V193.09A13.646,13.646,0,0,1,490,206.4Z"/><path d="M204.62,62.685c12.17,4.062,23.451,10.565,23.589,30.471a6.21,6.21,0,0,0,5.4,6.164,6.429,6.429,0,0,0,.871.06,6.207,6.207,0,0,0,5.986-4.547v0c5.468-19.18,17.991-22.432,30.716-23.089a6.672,6.672,0,0,0,6.238-6.026,6.588,6.588,0,0,0-4.558-6.939c-8.471-2.717-22.793-10.115-23.536-29.135a6.247,6.247,0,0,0-12.194-1.661c-5.809,18.1-21.712,21.4-30.669,21.762a6.584,6.584,0,0,0-6.252,5.47A6.67,6.67,0,0,0,204.62,62.685Zm36.232-16.546a40.556,40.556,0,0,0,13.37,16.476,39.213,39.213,0,0,0-5.057,2.189,36.769,36.769,0,0,0-12.243,10.277,36.916,36.916,0,0,0-13.415-16.666A40.743,40.743,0,0,0,240.852,46.139Z"/></svg>
